<?xml version="1.0" encoding="UTF-8" standalone="no"?>
<!DOCTYPE svg PUBLIC "-//W3C//DTD SVG 1.1//EN"
 "http://www.w3.org/Graphics/SVG/1.1/DTD/svg11.dtd">
<!-- Generated by graphviz version 2.36.0 (20140111.2315)
 -->
<!-- Title: G Pages: 1 -->
<svg width="291pt" height="86pt"
 viewBox="0.00 0.00 291.20 86.20" xmlns="http://www.w3.org/2000/svg" xmlns:xlink="http://www.w3.org/1999/xlink">
<g id="graph0" class="graph" transform="scale(1 1) rotate(0) translate(21.6 64.6)">
<title>G</title>
<polygon fill="#111111" stroke="none" points="-21.6,21.6 -21.6,-64.6 269.6,-64.6 269.6,21.6 -21.6,21.6"/>
<!-- bin.ts -->
<g id="node1" class="node"><title>bin.ts</title>
<path fill="none" stroke="#c6c5fe" d="M46.3333,-23.5C46.3333,-23.5 7.66667,-23.5 7.66667,-23.5 3.83333,-23.5 0,-19.6667 0,-15.8333 0,-15.8333 0,-8.16667 0,-8.16667 0,-4.33333 3.83333,-0.5 7.66667,-0.5 7.66667,-0.5 46.3333,-0.5 46.3333,-0.5 50.1667,-0.5 54,-4.33333 54,-8.16667 54,-8.16667 54,-15.8333 54,-15.8333 54,-19.6667 50.1667,-23.5 46.3333,-23.5"/>
<text text-anchor="middle" x="27" y="-8.3" font-family="Arial" font-size="14.00" fill="#c6c5fe">bin.ts</text>
</g>
<!-- index.ts -->
<g id="node2" class="node"><title>index.ts</title>
<path fill="none" stroke="#ff6c60" d="M147.833,-43.5C147.833,-43.5 98.1667,-43.5 98.1667,-43.5 94.3333,-43.5 90.5,-39.6667 90.5,-35.8333 90.5,-35.8333 90.5,-28.1667 90.5,-28.1667 90.5,-24.3333 94.3333,-20.5 98.1667,-20.5 98.1667,-20.5 147.833,-20.5 147.833,-20.5 151.667,-20.5 155.5,-24.3333 155.5,-28.1667 155.5,-28.1667 155.5,-35.8333 155.5,-35.8333 155.5,-39.6667 151.667,-43.5 147.833,-43.5"/>
<text text-anchor="middle" x="123" y="-28.3" font-family="Arial" font-size="14.00" fill="#ff6c60">index.ts</text>
</g>
<!-- bin.ts&#45;&gt;index.ts -->
<g id="edge1" class="edge"><title>bin.ts&#45;&gt;index.ts</title>
<path fill="none" stroke="#757575" d="M54.1842,-17.5711C62.315,-19.3011 71.4873,-21.2526 80.3974,-23.1484"/>
<polygon fill="#757575" stroke="#757575" points="79.7668,-26.5925 90.2762,-25.2503 81.2236,-19.7457 79.7668,-26.5925"/>
</g>
<!-- repl.ts -->
<g id="node3" class="node"><title>repl.ts</title>
<path fill="none" stroke="#ff6c60" d="M239.833,-43.5C239.833,-43.5 200.167,-43.5 200.167,-43.5 196.333,-43.5 192.5,-39.6667 192.5,-35.8333 192.5,-35.8333 192.5,-28.1667 192.5,-28.1667 192.5,-24.3333 196.333,-20.5 200.167,-20.5 200.167,-20.5 239.833,-20.5 239.833,-20.5 243.667,-20.5 247.5,-24.3333 247.5,-28.1667 247.5,-28.1667 247.5,-35.8333 247.5,-35.8333 247.5,-39.6667 243.667,-43.5 239.833,-43.5"/>
<text text-anchor="middle" x="220" y="-28.3" font-family="Arial" font-size="14.00" fill="#ff6c60">repl.ts</text>
</g>
<!-- bin.ts&#45;&gt;repl.ts -->
<g id="edge2" class="edge"><title>bin.ts&#45;&gt;repl.ts</title>
<path fill="none" stroke="#757575" d="M54.1656,-9.67015C80.1627,-7.90074 121.083,-6.59067 156,-12 164.803,-13.3637 174.06,-15.7393 182.686,-18.3877"/>
<polygon fill="#757575" stroke="#757575" points="181.865,-21.8015 192.458,-21.5778 184.037,-15.1471 181.865,-21.8015"/>
</g>
<!-- index.ts&#45;&gt;repl.ts -->
<g id="edge3" class="edge"><title>index.ts&#45;&gt;repl.ts</title>
<path fill="none" stroke="#757575" d="M155.634,-25.5965C164.169,-25.2103 173.476,-25.1469 182.264,-25.4065"/>
<polygon fill="#757575" stroke="#757575" points="182.116,-28.9033 192.265,-25.8594 182.433,-21.9105 182.116,-28.9033"/>
</g>
<!-- repl.ts&#45;&gt;index.ts -->
<g id="edge4" class="edge"><title>repl.ts&#45;&gt;index.ts</title>
<path fill="none" stroke="#757575" d="M192.265,-38.1406C183.991,-38.6583 174.671,-38.8462 165.639,-38.7041"/>
<polygon fill="#757575" stroke="#757575" points="165.734,-35.2055 155.634,-38.4035 165.524,-42.2023 165.734,-35.2055"/>
</g>
</g>
</svg>
