<?xml version="1.0" encoding="UTF-8" standalone="no"?>
<!DOCTYPE svg PUBLIC "-//W3C//DTD SVG 1.1//EN"
 "http://www.w3.org/Graphics/SVG/1.1/DTD/svg11.dtd">
<!-- Generated by graphviz version 2.40.1 (20161225.0304)
 -->
<!-- Title: %0 Pages: 1 -->
<svg width="372pt" height="239pt"
 viewBox="0.00 0.00 372.15 239.40" xmlns="http://www.w3.org/2000/svg" xmlns:xlink="http://www.w3.org/1999/xlink">
<g id="graph0" class="graph" transform="scale(1 1) rotate(0) translate(4 235.4)">
<title>%0</title>
<polygon fill="#ffffff" stroke="transparent" points="-4,4 -4,-235.4 368.1464,-235.4 368.1464,4 -4,4"/>
<text text-anchor="middle" x="182.0732" y="-213" font-family="Roboto Condensed, sans-serif" font-size="16.00" fill="#000000">ts&#45;node</text>
<!-- ts&#45;node@9.1.1 -->
<g id="node1" class="node">
<title>ts&#45;node@9.1.1</title>
<path fill="none" stroke="#000000" d="M63.7986,-111.3011C63.7986,-111.3011 6.7109,-111.3011 6.7109,-111.3011 3.4772,-111.3011 .2436,-108.0674 .2436,-104.8337 .2436,-104.8337 .2436,-98.3663 .2436,-98.3663 .2436,-95.1326 3.4772,-91.8989 6.7109,-91.8989 6.7109,-91.8989 63.7986,-91.8989 63.7986,-91.8989 67.0323,-91.8989 70.2659,-95.1326 70.2659,-98.3663 70.2659,-98.3663 70.2659,-104.8337 70.2659,-104.8337 70.2659,-108.0674 67.0323,-111.3011 63.7986,-111.3011"/>
<text text-anchor="middle" x="35.2548" y="-98.3" font-family="Roboto Condensed, sans-serif" font-size="11.00" fill="#000000">ts&#45;node@9.1.1</text>
</g>
<!-- create&#45;require@1.1.1 -->
<g id="node2" class="node">
<title>create&#45;require@1.1.1</title>
<path fill="none" stroke="#000000" d="M215.5289,-204.3011C215.5289,-204.3011 129.0859,-204.3011 129.0859,-204.3011 125.8522,-204.3011 122.6185,-201.0674 122.6185,-197.8337 122.6185,-197.8337 122.6185,-191.3663 122.6185,-191.3663 122.6185,-188.1326 125.8522,-184.8989 129.0859,-184.8989 129.0859,-184.8989 215.5289,-184.8989 215.5289,-184.8989 218.7626,-184.8989 221.9963,-188.1326 221.9963,-191.3663 221.9963,-191.3663 221.9963,-197.8337 221.9963,-197.8337 221.9963,-201.0674 218.7626,-204.3011 215.5289,-204.3011"/>
<text text-anchor="middle" x="172.3074" y="-191.3" font-family="Roboto Condensed, sans-serif" font-size="11.00" fill="#000000">create&#45;require@1.1.1</text>
</g>
<!-- ts&#45;node@9.1.1&#45;&gt;create&#45;require@1.1.1 -->
<g id="edge1" class="edge">
<title>ts&#45;node@9.1.1&#45;&gt;create&#45;require@1.1.1</title>
<path fill="none" stroke="#000000" d="M41.7118,-111.2513C52.9512,-127.2881 77.6856,-159.3607 106.5095,-176.6 109.3045,-178.2717 112.2584,-179.792 115.3046,-181.174"/>
<polygon fill="#000000" stroke="#000000" points="114.0697,-184.4497 124.6542,-184.9188 116.6725,-177.9515 114.0697,-184.4497"/>
</g>
<!-- make&#45;error@1.3.6 -->
<g id="node3" class="node">
<title>make&#45;error@1.3.6</title>
<path fill="none" stroke="#000000" d="M209.3231,-167.3011C209.3231,-167.3011 135.2917,-167.3011 135.2917,-167.3011 132.058,-167.3011 128.8243,-164.0674 128.8243,-160.8337 128.8243,-160.8337 128.8243,-154.3663 128.8243,-154.3663 128.8243,-151.1326 132.058,-147.8989 135.2917,-147.8989 135.2917,-147.8989 209.3231,-147.8989 209.3231,-147.8989 212.5568,-147.8989 215.7905,-151.1326 215.7905,-154.3663 215.7905,-154.3663 215.7905,-160.8337 215.7905,-160.8337 215.7905,-164.0674 212.5568,-167.3011 209.3231,-167.3011"/>
<text text-anchor="middle" x="172.3074" y="-154.3" font-family="Roboto Condensed, sans-serif" font-size="11.00" fill="#000000">make&#45;error@1.3.6</text>
</g>
<!-- ts&#45;node@9.1.1&#45;&gt;make&#45;error@1.3.6 -->
<g id="edge2" class="edge">
<title>ts&#45;node@9.1.1&#45;&gt;make&#45;error@1.3.6</title>
<path fill="none" stroke="#000000" d="M50.8972,-111.2551C65.0186,-119.6486 86.5773,-131.6739 106.5095,-139.6 111.3379,-141.52 116.4439,-143.3106 121.5906,-144.9598"/>
<polygon fill="#000000" stroke="#000000" points="120.8906,-148.4047 131.4758,-147.9537 122.9197,-141.7052 120.8906,-148.4047"/>
</g>
<!-- source&#45;map&#45;support@0.5.19 -->
<g id="node4" class="node">
<title>source&#45;map&#45;support@0.5.19</title>
<path fill="none" stroke="#000000" d="M231.4365,-130.3011C231.4365,-130.3011 113.1783,-130.3011 113.1783,-130.3011 109.9447,-130.3011 106.711,-127.0674 106.711,-123.8337 106.711,-123.8337 106.711,-117.3663 106.711,-117.3663 106.711,-114.1326 109.9447,-110.8989 113.1783,-110.8989 113.1783,-110.8989 231.4365,-110.8989 231.4365,-110.8989 234.6701,-110.8989 237.9038,-114.1326 237.9038,-117.3663 237.9038,-117.3663 237.9038,-123.8337 237.9038,-123.8337 237.9038,-127.0674 234.6701,-130.3011 231.4365,-130.3011"/>
<text text-anchor="middle" x="172.3074" y="-117.3" font-family="Roboto Condensed, sans-serif" font-size="11.00" fill="#000000">source&#45;map&#45;support@0.5.19</text>
</g>
<!-- ts&#45;node@9.1.1&#45;&gt;source&#45;map&#45;support@0.5.19 -->
<g id="edge3" class="edge">
<title>ts&#45;node@9.1.1&#45;&gt;source&#45;map&#45;support@0.5.19</title>
<path fill="none" stroke="#000000" d="M70.5492,-106.493C78.5591,-107.6034 87.3683,-108.8246 96.3497,-110.0698"/>
<polygon fill="#000000" stroke="#000000" points="96.144,-113.5746 106.5299,-111.4811 97.1053,-106.641 96.144,-113.5746"/>
</g>
<!-- arg@5.0.0 -->
<g id="node5" class="node">
<title>arg@5.0.0</title>
<path fill="none" stroke="#000000" d="M192.015,-93.3011C192.015,-93.3011 152.5998,-93.3011 152.5998,-93.3011 149.3661,-93.3011 146.1324,-90.0674 146.1324,-86.8337 146.1324,-86.8337 146.1324,-80.3663 146.1324,-80.3663 146.1324,-77.1326 149.3661,-73.8989 152.5998,-73.8989 152.5998,-73.8989 192.015,-73.8989 192.015,-73.8989 195.2487,-73.8989 198.4824,-77.1326 198.4824,-80.3663 198.4824,-80.3663 198.4824,-86.8337 198.4824,-86.8337 198.4824,-90.0674 195.2487,-93.3011 192.015,-93.3011"/>
<text text-anchor="middle" x="172.3074" y="-80.3" font-family="Roboto Condensed, sans-serif" font-size="11.00" fill="#000000">arg@5.0.0</text>
</g>
<!-- ts&#45;node@9.1.1&#45;&gt;arg@5.0.0 -->
<g id="edge4" class="edge">
<title>ts&#45;node@9.1.1&#45;&gt;arg@5.0.0</title>
<path fill="none" stroke="#000000" d="M70.5492,-96.9646C90.5408,-94.3389 115.5113,-91.0594 135.713,-88.4062"/>
<polygon fill="#000000" stroke="#000000" points="136.3318,-91.855 145.7909,-87.0826 135.4203,-84.9146 136.3318,-91.855"/>
</g>
<!-- diff@5.0.0 -->
<g id="node6" class="node">
<title>diff@5.0.0</title>
<path fill="none" stroke="#000000" d="M192.8506,-56.3011C192.8506,-56.3011 151.7642,-56.3011 151.7642,-56.3011 148.5305,-56.3011 145.2968,-53.0674 145.2968,-49.8337 145.2968,-49.8337 145.2968,-43.3663 145.2968,-43.3663 145.2968,-40.1326 148.5305,-36.8989 151.7642,-36.8989 151.7642,-36.8989 192.8506,-36.8989 192.8506,-36.8989 196.0843,-36.8989 199.318,-40.1326 199.318,-43.3663 199.318,-43.3663 199.318,-49.8337 199.318,-49.8337 199.318,-53.0674 196.0843,-56.3011 192.8506,-56.3011"/>
<text text-anchor="middle" x="172.3074" y="-43.3" font-family="Roboto Condensed, sans-serif" font-size="11.00" fill="#000000">diff@5.0.0</text>
</g>
<!-- ts&#45;node@9.1.1&#45;&gt;diff@5.0.0 -->
<g id="edge5" class="edge">
<title>ts&#45;node@9.1.1&#45;&gt;diff@5.0.0</title>
<path fill="none" stroke="#000000" d="M51.4906,-91.9035C65.6402,-83.7645 86.9088,-72.2698 106.5095,-64.6 115.5806,-61.0505 125.6149,-57.9237 135.0571,-55.3145"/>
<polygon fill="#000000" stroke="#000000" points="136.2214,-58.6271 144.9969,-52.6907 134.4348,-51.8589 136.2214,-58.6271"/>
</g>
<!-- yn@4.0.0 -->
<g id="node7" class="node">
<title>yn@4.0.0</title>
<path fill="none" stroke="#000000" d="M190.4701,-19.3011C190.4701,-19.3011 154.1447,-19.3011 154.1447,-19.3011 150.911,-19.3011 147.6773,-16.0674 147.6773,-12.8337 147.6773,-12.8337 147.6773,-6.3663 147.6773,-6.3663 147.6773,-3.1326 150.911,.1011 154.1447,.1011 154.1447,.1011 190.4701,.1011 190.4701,.1011 193.7038,.1011 196.9375,-3.1326 196.9375,-6.3663 196.9375,-6.3663 196.9375,-12.8337 196.9375,-12.8337 196.9375,-16.0674 193.7038,-19.3011 190.4701,-19.3011"/>
<text text-anchor="middle" x="172.3074" y="-6.3" font-family="Roboto Condensed, sans-serif" font-size="11.00" fill="#000000">yn@4.0.0</text>
</g>
<!-- ts&#45;node@9.1.1&#45;&gt;yn@4.0.0 -->
<g id="edge6" class="edge">
<title>ts&#45;node@9.1.1&#45;&gt;yn@4.0.0</title>
<path fill="none" stroke="#000000" d="M41.9254,-91.8251C53.2943,-75.9237 77.9831,-44.5318 106.5095,-27.6 116.0022,-21.9656 127.3053,-18.0479 137.8418,-15.3438"/>
<polygon fill="#000000" stroke="#000000" points="138.6568,-18.7478 147.6249,-13.1066 137.0963,-11.924 138.6568,-18.7478"/>
</g>
<!-- buffer&#45;from@1.1.1 -->
<g id="node8" class="node">
<title>buffer&#45;from@1.1.1</title>
<path fill="none" stroke="#000000" d="M357.6996,-148.3011C357.6996,-148.3011 280.5521,-148.3011 280.5521,-148.3011 277.3184,-148.3011 274.0847,-145.0674 274.0847,-141.8337 274.0847,-141.8337 274.0847,-135.3663 274.0847,-135.3663 274.0847,-132.1326 277.3184,-128.8989 280.5521,-128.8989 280.5521,-128.8989 357.6996,-128.8989 357.6996,-128.8989 360.9333,-128.8989 364.167,-132.1326 364.167,-135.3663 364.167,-135.3663 364.167,-141.8337 364.167,-141.8337 364.167,-145.0674 360.9333,-148.3011 357.6996,-148.3011"/>
<text text-anchor="middle" x="319.1258" y="-135.3" font-family="Roboto Condensed, sans-serif" font-size="11.00" fill="#000000">buffer&#45;from@1.1.1</text>
</g>
<!-- source&#45;map&#45;support@0.5.19&#45;&gt;buffer&#45;from@1.1.1 -->
<g id="edge7" class="edge">
<title>source&#45;map&#45;support@0.5.19&#45;&gt;buffer&#45;from@1.1.1</title>
<path fill="none" stroke="#000000" d="M237.987,-128.6523C246.5633,-129.7038 255.2818,-130.7727 263.6674,-131.8008"/>
<polygon fill="#000000" stroke="#000000" points="263.3473,-135.2877 273.699,-133.0306 264.1992,-128.3397 263.3473,-135.2877"/>
</g>
<!-- source&#45;map@0.7.3 -->
<g id="node9" class="node">
<title>source&#45;map@0.7.3</title>
<path fill="none" stroke="#000000" d="M357.5968,-111.3011C357.5968,-111.3011 280.6549,-111.3011 280.6549,-111.3011 277.4213,-111.3011 274.1876,-108.0674 274.1876,-104.8337 274.1876,-104.8337 274.1876,-98.3663 274.1876,-98.3663 274.1876,-95.1326 277.4213,-91.8989 280.6549,-91.8989 280.6549,-91.8989 357.5968,-91.8989 357.5968,-91.8989 360.8304,-91.8989 364.0641,-95.1326 364.0641,-98.3663 364.0641,-98.3663 364.0641,-104.8337 364.0641,-104.8337 364.0641,-108.0674 360.8304,-111.3011 357.5968,-111.3011"/>
<text text-anchor="middle" x="319.1258" y="-98.3" font-family="Roboto Condensed, sans-serif" font-size="11.00" fill="#000000">source&#45;map@0.7.3</text>
</g>
<!-- source&#45;map&#45;support@0.5.19&#45;&gt;source&#45;map@0.7.3 -->
<g id="edge8" class="edge">
<title>source&#45;map&#45;support@0.5.19&#45;&gt;source&#45;map@0.7.3</title>
<path fill="none" stroke="#000000" d="M237.987,-112.1003C246.6718,-110.9764 255.5026,-109.8336 263.9857,-108.7358"/>
<polygon fill="#000000" stroke="#000000" points="264.6597,-112.1778 274.1277,-107.4233 263.7612,-105.2357 264.6597,-112.1778"/>
</g>
</g>
</svg>
